<svg width="200.11998901367187px" height="124.439990234375px" xmlns="http://www.w3.org/2000/svg" viewBox="149.94000549316405 12.780004882812499 200.11998901367187 124.439990234375" style="background: none;" preserveAspectRatio="xMidYMid"><defs><filter id="editing-hole" x="-100%" y="-100%" width="300%" height="300%"><feFlood flood-color="#000" result="black"></feFlood><feMorphology operator="dilate" radius="2" in="SourceGraphic" result="erode"></feMorphology><feGaussianBlur in="erode" stdDeviation="4" result="blur"></feGaussianBlur><feOffset in="blur" dx="2" dy="2" result="offset"></feOffset><feComposite operator="atop" in="offset" in2="black" result="merge"></feComposite><feComposite operator="in" in="merge" in2="SourceGraphic" result="inner-shadow"></feComposite></filter></defs><g filter="url(#editing-hole)"><g transform="translate(184.60353577136993, 96.76000022888184)"><path d="M14.34 0L0.38 0L8.51-42.24L22.59-42.24L14.34 0ZM47.23-31.55L47.23-31.55L47.23-31.55Q49.34-33.92 52.99-33.92L52.99-33.92L52.99-33.92Q55.23-33.92 56.96-32.70L56.96-32.70L56.96-32.70Q58.69-31.49 58.69-29.22L58.69-29.22L58.69-29.22Q58.69-26.94 57.98-24.51L57.98-24.51L57.98-24.51Q57.28-22.08 56.19-19.58L56.19-19.58L56.19-19.58Q54.02-14.72 51.01-10.69L51.01-10.69L51.01-10.69Q46.78-4.86 42.72-1.79L42.72-1.79L42.72-1.79Q38.66 1.28 34.24 1.28L34.24 1.28L34.24 1.28Q30.66 1.28 28.48 0.45L28.48 0.45L28.48 0.45Q28.10-12.99 27.62-17.79L27.62-17.79L27.62-17.79Q27.14-22.59 26.75-25.22L26.75-25.22L26.75-25.22Q26.11-30.34 24.19-31.55L24.19-31.55L24.19-31.55Q25.66-32.83 27.10-33.38L27.10-33.38L27.10-33.38Q28.54-33.92 31.52-33.92L31.52-33.92L31.52-33.92Q34.50-33.92 36.61-31.58L36.61-31.58L36.61-31.58Q38.72-29.25 39.14-25.12L39.14-25.12L39.14-25.12Q39.55-20.99 39.55-16L39.55-16L39.55-16Q39.55-11.01 39.17-4.99L39.17-4.99L39.17-4.99Q41.15-6.40 43.26-10.69L43.26-10.69L43.26-10.69Q46.14-16.64 47.17-23.81L47.17-23.81L47.17-23.81Q47.49-25.98 47.49-28.29L47.49-28.29L47.49-28.29Q47.49-30.59 47.23-31.55ZM74.37 1.28L74.37 1.28L74.37 1.28Q60.29 1.28 60.29-11.97L60.29-11.97L60.29-11.97Q60.29-21.38 65.47-27.46L65.47-27.46L65.47-27.46Q70.98-33.92 80.51-33.92L80.51-33.92L80.51-33.92Q87.42-33.92 90.94-30.72L90.94-30.72L90.94-30.72Q94.46-27.52 94.46-20.80L94.46-20.80L94.46-20.80Q94.46-10.56 88.96-4.61L88.96-4.61L88.96-4.61Q83.58 1.28 74.37 1.28ZM76.03-26.56L76.03-26.56L76.03-26.56Q75.26-24.83 74.66-22.24L74.66-22.24L74.66-22.24Q74.05-19.65 73.28-15.55L73.28-15.55L73.28-15.55Q72.51-11.46 72.51-6.40L72.51-6.40L72.51-6.40Q72.51-4.74 73.06-3.65L73.06-3.65L73.06-3.65Q73.60-2.56 75.07-2.56L75.07-2.56L75.07-2.56Q76.54-2.56 77.47-3.26L77.47-3.26L77.47-3.26Q78.40-3.97 79.10-5.63L79.10-5.63L79.10-5.63Q80.38-8.58 81.41-14.05L81.41-14.05L81.41-14.05Q82.43-19.52 82.53-21.89L82.53-21.89L82.53-21.89Q82.62-24.26 82.62-26.02L82.62-26.02L82.62-26.02Q82.62-27.78 82.11-28.93L82.11-28.93L82.11-28.93Q81.60-30.08 80.16-30.08L80.16-30.08L80.16-30.08Q78.72-30.08 77.76-29.18L77.76-29.18L77.76-29.18Q76.80-28.29 76.03-26.56ZM118.27-17.98L118.27-17.98L118.27-17.98Q120.58-22.08 120.58-26.24L120.58-26.24L120.58-26.24Q120.58-28.99 118.59-28.99L118.59-28.99L118.59-28.99Q117.06-28.99 115.46-26.37L115.46-26.37L115.46-26.37Q113.79-23.74 113.28-20.35L113.28-20.35L109.95 0L96.70 1.28L103.23-32.64L113.79-33.92L112.64-27.46L112.64-27.46Q115.78-33.92 122.82-33.92L122.82-33.92L122.82-33.92Q126.53-33.92 128.54-32L128.54-32L128.54-32Q130.56-30.08 130.56-26.14L130.56-26.14L130.56-26.14Q130.56-22.21 127.97-19.71L127.97-19.71L127.97-19.71Q125.38-17.22 120.96-17.22L120.96-17.22L120.96-17.22Q119.04-17.22 118.27-17.98Z" fill="#ccc"></path></g></g><style>text {
  font-size: 64px;
  font-family: Arial Black;
  dominant-baseline: central;
  text-anchor: middle;
}</style></svg>